<?xml version="1.0" encoding="iso-8859-1"?>
<!-- Uploaded to: SVG Repo, www.svgrepo.com, Generator: SVG Repo Mixer Tools -->
<svg height="800px" width="800px" version="1.1" id="Layer_1" xmlns="http://www.w3.org/2000/svg" xmlns:xlink="http://www.w3.org/1999/xlink" 
	 viewBox="0 0 511.997 511.997" xml:space="preserve">
<g>
	<g>
		<g>
			<path style="fill:#fdfbb3;" d="M510.568,481.343L447.47,323.597v-108.79c0-11.967-9.791-21.758-21.758-21.758h-98.999
				c-11.967,0-21.758,9.791-21.758,21.758v108.79l-7.886,20.043l-31.279-78.79V114.719c0-11.967-9.791-21.758-21.758-21.758h-134.9
				c-11.967,0-21.758,9.791-21.758,21.758v151.219L1.429,482.431c-2.176,6.527-2.176,14.143,2.176,19.582
				c3.264,6.527,10.879,9.791,17.406,9.791h240.427h69.626H488.81c7.615,0,14.143-3.264,19.582-10.879
				C512.744,495.486,512.744,487.87,510.568,481.343z M128.714,277.905c1.088-2.176,1.088-5.44,1.088-7.615V136.477h92.472V270.29
				c0,2.176,0,5.44,1.088,7.615l75.721,190.383h-37.644c-2.359,0-4.63,0.386-6.762,1.088H51.473L128.714,277.905z M346.552,468.288
				l-26.776-67.448l26.519-65.277c1.088-2.176,1.088-5.44,1.088-7.615v-91.384h56.571v91.384c0,2.176,0,5.44,1.088,7.615
				l52.219,132.724H346.552z"/>
			<path style="fill:#fdfbb3;" d="M178.757,67.94c2.176,0,5.44,0,8.703-3.264c7.615-2.176,11.967-8.703,13.055-16.319h1.088
				c6.527-2.176,16.319-2.176,28.286-2.176c3.264,1.088,7.615,1.088,10.879,1.088c8.703,1.088,17.406,1.088,26.11,1.088
				c9.791-1.088,19.582-2.176,28.285-3.264c7.615-1.088,15.231-2.176,22.846-2.176c13.055,0,25.022,1.088,38.077,2.176l48.956,5.44
				c10.879,1.088,21.758-7.615,22.846-19.582c1.088-10.879-7.615-21.758-19.582-22.846l-48.956-5.44
				c-14.143-1.088-29.373-3.264-44.604-2.176c-8.703,1.088-17.406,2.176-26.11,3.264c-8.703,1.088-16.319,2.176-23.934,2.176
				c-7.615,0-15.231,0-22.846-1.088c-3.264-1.088-7.615-1.088-11.967-1.088c-17.406-1.088-31.549,1.088-42.428,4.352
				c-13.055,4.352-22.846,13.055-27.198,22.846c-4.352,7.615-4.352,16.319-1.088,23.934C162.439,62.5,170.054,67.94,178.757,67.94z"
				/>
			<path style="fill:#fdfbb3;" d="M360.437,146.269c-3.264,10.879,3.264,22.846,14.143,26.11c2.176,1.088,4.352,1.088,6.527,1.088
				c8.703,0,17.406-5.44,20.67-16.319c1.088-4.352,8.703-5.44,13.055-5.44c4.352,1.088,9.791,2.176,15.231,3.264
				c8.703,2.176,18.494,4.352,29.373,4.352c4.352,0,7.615-1.088,11.967-1.088s8.703-1.088,10.879,0
				c10.879,4.352,22.846-1.088,27.198-11.967c4.352-10.879-1.088-22.846-11.967-27.198c-11.967-4.352-22.846-3.264-31.549-2.176
				c-2.176,1.088-5.44,1.088-7.615,1.088c-5.44,0-11.967-1.088-18.494-3.264c-6.527-2.176-14.143-3.264-21.758-4.352
				C390.899,108.192,366.965,122.335,360.437,146.269z"/>
		</g>
	</g>
</g>
</svg>